<?xml version="1.0" encoding="UTF-8" standalone="no"?>
<!DOCTYPE svg PUBLIC "-//W3C//DTD SVG 1.1//EN"
 "http://www.w3.org/Graphics/SVG/1.1/DTD/svg11.dtd">
<!-- Generated by graphviz version 10.0.1 (20240210.2158)
 -->
<!-- Title: CFG for &#39;_Z3fooii&#39; function Pages: 1 -->
<svg width="438pt" height="995pt"
 viewBox="0.00 0.00 437.62 994.50" xmlns="http://www.w3.org/2000/svg" xmlns:xlink="http://www.w3.org/1999/xlink">
<g id="graph0" class="graph" transform="scale(1 1) rotate(0) translate(4 990.5)">
<title>CFG for &#39;_Z3fooii&#39; function</title>
<polygon fill="white" stroke="none" points="-4,4 -4,-990.5 433.62,-990.5 433.62,4 -4,4"/>
<text text-anchor="middle" x="214.81" y="-6.45" font-family="Times New Roman,serif" font-size="14.00">CFG for &#39;_Z3fooii&#39; function</text>
<!-- Block37 -->
<g id="node1" class="node">
<title>Block37</title>
<polygon fill="#b9d0f9" fill-opacity="0.439216" stroke="#3d50c3" points="0,-205.25 0,-307.75 183.25,-307.75 183.25,-205.25 0,-205.25"/>
<text text-anchor="start" x="8" y="-290.45" font-family="Times New Roman,serif" font-size="14.00">B37</text>
<text text-anchor="start" x="8" y="-274.7" font-family="Times New Roman,serif" font-size="14.00"> 0x1193: lea rcx, [rip + 0xe6a]</text>
<text text-anchor="start" x="8" y="-258.95" font-family="Times New Roman,serif" font-size="14.00"> 0x119a: mov edx, 0x10</text>
<text text-anchor="start" x="8" y="-243.2" font-family="Times New Roman,serif" font-size="14.00"> 0x119f: lea rsi, [rip + 0xe71]</text>
<text text-anchor="start" x="8" y="-227.45" font-family="Times New Roman,serif" font-size="14.00"> 0x11a6: lea rdi, [rip + 0xe74]</text>
<text text-anchor="start" x="8" y="-211.7" font-family="Times New Roman,serif" font-size="14.00"> 0x11ad: call 0x1050</text>
</g>
<!-- Block38 -->
<g id="node2" class="node">
<title>Block38</title>
<polygon fill="#b9d0f9" fill-opacity="0.439216" stroke="#3d50c3" points="102,-97.25 102,-168.25 201.25,-168.25 201.25,-97.25 102,-97.25"/>
<text text-anchor="start" x="110" y="-150.95" font-family="Times New Roman,serif" font-size="14.00">B38</text>
<text text-anchor="start" x="110" y="-135.2" font-family="Times New Roman,serif" font-size="14.00"> 0x11b2: nop </text>
<text text-anchor="start" x="110" y="-119.45" font-family="Times New Roman,serif" font-size="14.00"> 0x11b3: leave </text>
<text text-anchor="start" x="110" y="-103.7" font-family="Times New Roman,serif" font-size="14.00"> 0x11b4: ret </text>
</g>
<!-- Block37&#45;&gt;Block38 -->
<g id="edge1" class="edge">
<title>Block37&#45;&gt;Block38</title>
<path fill="none" stroke="black" d="M116.55,-204.92C120.85,-196.19 125.3,-187.17 129.52,-178.6"/>
<polygon fill="black" stroke="black" points="132.59,-180.3 133.87,-169.79 126.31,-177.21 132.59,-180.3"/>
</g>
<!-- Block32 -->
<g id="node3" class="node">
<title>Block32</title>
<polygon fill="#b9d0f9" fill-opacity="0.439216" stroke="#3d50c3" points="100.88,-24.25 100.88,-60.25 202.38,-60.25 202.38,-24.25 100.88,-24.25"/>
<text text-anchor="start" x="108.88" y="-36.95" font-family="Times New Roman,serif" font-size="14.00">_Z3fooii::EXIT</text>
</g>
<!-- Block38&#45;&gt;Block32 -->
<g id="edge2" class="edge">
<title>Block38&#45;&gt;Block32</title>
<path fill="none" stroke="black" d="M151.62,-96.77C151.62,-88.56 151.62,-79.9 151.62,-71.99"/>
<polygon fill="black" stroke="black" points="155.13,-72.25 151.63,-62.25 148.13,-72.25 155.13,-72.25"/>
</g>
<!-- Block36 -->
<g id="node4" class="node">
<title>Block36</title>
<polygon fill="#b9d0f9" fill-opacity="0.439216" stroke="#3d50c3" points="36.75,-344.75 36.75,-415.75 266.5,-415.75 266.5,-344.75 36.75,-344.75"/>
<text text-anchor="start" x="44.75" y="-398.45" font-family="Times New Roman,serif" font-size="14.00">B36</text>
<text text-anchor="start" x="44.75" y="-382.7" font-family="Times New Roman,serif" font-size="14.00"> 0x118b: mov eax, dword ptr [rbp &#45; 8]</text>
<text text-anchor="start" x="44.75" y="-366.95" font-family="Times New Roman,serif" font-size="14.00"> 0x118e: cmp eax, dword ptr [rbp &#45; 4]</text>
<text text-anchor="start" x="44.75" y="-351.2" font-family="Times New Roman,serif" font-size="14.00"> 0x1191: jne 0x11b2</text>
</g>
<!-- Block36&#45;&gt;Block37 -->
<g id="edge3" class="edge">
<title>Block36&#45;&gt;Block37</title>
<path fill="none" stroke="black" d="M134.43,-344.36C130.36,-336.09 125.89,-327.03 121.43,-317.99"/>
<polygon fill="black" stroke="black" points="124.65,-316.6 117.09,-309.18 118.37,-319.69 124.65,-316.6"/>
</g>
<!-- Block36&#45;&gt;Block38 -->
<g id="edge4" class="edge">
<title>Block36&#45;&gt;Block38</title>
<path fill="none" stroke="black" d="M176.59,-344.38C183.12,-333.35 189.27,-320.76 192.62,-308.25 204.53,-263.82 204.53,-249.18 192.62,-204.75 190.24,-195.86 186.44,-186.92 182.1,-178.54"/>
<polygon fill="black" stroke="black" points="185.24,-176.98 177.32,-169.94 179.12,-180.39 185.24,-176.98"/>
</g>
<!-- Block35 -->
<g id="node5" class="node">
<title>Block35</title>
<polygon fill="#b9d0f9" fill-opacity="0.439216" stroke="#3d50c3" points="179.62,-452.75 179.62,-555.25 429.62,-555.25 429.62,-452.75 179.62,-452.75"/>
<text text-anchor="start" x="187.62" y="-537.95" font-family="Times New Roman,serif" font-size="14.00">B35</text>
<text text-anchor="start" x="187.62" y="-522.2" font-family="Times New Roman,serif" font-size="14.00"> 0x117e: mov edx, dword ptr [rbp &#45; 0x14]</text>
<text text-anchor="start" x="187.62" y="-506.45" font-family="Times New Roman,serif" font-size="14.00"> 0x1181: mov eax, dword ptr [rbp &#45; 0x18]</text>
<text text-anchor="start" x="187.62" y="-490.7" font-family="Times New Roman,serif" font-size="14.00"> 0x1184: add eax, edx</text>
<text text-anchor="start" x="187.62" y="-474.95" font-family="Times New Roman,serif" font-size="14.00"> 0x1186: add eax, eax</text>
<text text-anchor="start" x="187.62" y="-459.2" font-family="Times New Roman,serif" font-size="14.00"> 0x1188: mov dword ptr [rbp &#45; 8], eax</text>
</g>
<!-- Block35&#45;&gt;Block36 -->
<g id="edge5" class="edge">
<title>Block35&#45;&gt;Block36</title>
<path fill="none" stroke="black" d="M241.07,-452.42C228.77,-442.64 216.01,-432.48 204.11,-423.02"/>
<polygon fill="black" stroke="black" points="206.39,-420.36 196.39,-416.87 202.03,-425.84 206.39,-420.36"/>
</g>
<!-- Block34 -->
<g id="node6" class="node">
<title>Block34</title>
<polygon fill="#b9d0f9" fill-opacity="0.439216" stroke="#3d50c3" points="142,-592.25 142,-694.75 379.25,-694.75 379.25,-592.25 142,-592.25"/>
<text text-anchor="start" x="150" y="-677.45" font-family="Times New Roman,serif" font-size="14.00">B34</text>
<text text-anchor="start" x="150" y="-661.7" font-family="Times New Roman,serif" font-size="14.00"> 0x116f: mov eax, dword ptr [rbp &#45; 8]</text>
<text text-anchor="start" x="150" y="-645.95" font-family="Times New Roman,serif" font-size="14.00"> 0x1172: add eax, 3</text>
<text text-anchor="start" x="150" y="-630.2" font-family="Times New Roman,serif" font-size="14.00"> 0x1175: mov dword ptr [rbp &#45; 4], eax</text>
<text text-anchor="start" x="150" y="-614.45" font-family="Times New Roman,serif" font-size="14.00"> 0x1178: cmp dword ptr [rbp &#45; 0x18], 0</text>
<text text-anchor="start" x="150" y="-598.7" font-family="Times New Roman,serif" font-size="14.00"> 0x117c: jne 0x118b</text>
</g>
<!-- Block34&#45;&gt;Block36 -->
<g id="edge7" class="edge">
<title>Block34&#45;&gt;Block36</title>
<path fill="none" stroke="black" d="M196.36,-591.81C186.25,-580.97 177.03,-568.8 170.62,-555.75 150.88,-515.51 147.55,-463.91 148.3,-427.28"/>
<polygon fill="black" stroke="black" points="151.79,-427.57 148.61,-417.46 144.79,-427.34 151.79,-427.57"/>
</g>
<!-- Block34&#45;&gt;Block35 -->
<g id="edge6" class="edge">
<title>Block34&#45;&gt;Block35</title>
<path fill="none" stroke="black" d="M276.76,-592.08C279.45,-583.67 282.27,-574.87 285.03,-566.23"/>
<polygon fill="black" stroke="black" points="288.32,-567.45 288.03,-556.85 281.65,-565.31 288.32,-567.45"/>
</g>
<!-- Block33 -->
<g id="node7" class="node">
<title>Block33</title>
<polygon fill="#b9d0f9" fill-opacity="0.439216" stroke="#3d50c3" points="63.12,-731.75 63.12,-913 310.12,-913 310.12,-731.75 63.12,-731.75"/>
<text text-anchor="start" x="71.12" y="-895.7" font-family="Times New Roman,serif" font-size="14.00">B33</text>
<text text-anchor="start" x="71.12" y="-879.95" font-family="Times New Roman,serif" font-size="14.00"> 0x1149: endbr64 </text>
<text text-anchor="start" x="71.12" y="-864.2" font-family="Times New Roman,serif" font-size="14.00"> 0x114d: push rbp</text>
<text text-anchor="start" x="71.12" y="-848.45" font-family="Times New Roman,serif" font-size="14.00"> 0x114e: mov rbp, rsp</text>
<text text-anchor="start" x="71.12" y="-832.7" font-family="Times New Roman,serif" font-size="14.00"> 0x1151: sub rsp, 0x20</text>
<text text-anchor="start" x="71.12" y="-816.95" font-family="Times New Roman,serif" font-size="14.00"> 0x1155: mov dword ptr [rbp &#45; 0x14], edi</text>
<text text-anchor="start" x="71.12" y="-801.2" font-family="Times New Roman,serif" font-size="14.00"> 0x1158: mov dword ptr [rbp &#45; 0x18], esi</text>
<text text-anchor="start" x="71.12" y="-785.45" font-family="Times New Roman,serif" font-size="14.00"> 0x115b: mov dword ptr [rbp &#45; 8], 1</text>
<text text-anchor="start" x="71.12" y="-769.7" font-family="Times New Roman,serif" font-size="14.00"> 0x1162: mov dword ptr [rbp &#45; 4], 0</text>
<text text-anchor="start" x="71.12" y="-753.95" font-family="Times New Roman,serif" font-size="14.00"> 0x1169: cmp dword ptr [rbp &#45; 0x14], 0</text>
<text text-anchor="start" x="71.12" y="-738.2" font-family="Times New Roman,serif" font-size="14.00"> 0x116d: je 0x118b</text>
</g>
<!-- Block33&#45;&gt;Block36 -->
<g id="edge9" class="edge">
<title>Block33&#45;&gt;Block36</title>
<path fill="none" stroke="black" d="M143.02,-731.51C138.75,-719.55 135.09,-707.27 132.62,-695.25 113.4,-601.51 129.39,-489 141.4,-427.32"/>
<polygon fill="black" stroke="black" points="144.83,-428.03 143.36,-417.53 137.96,-426.65 144.83,-428.03"/>
</g>
<!-- Block33&#45;&gt;Block34 -->
<g id="edge8" class="edge">
<title>Block33&#45;&gt;Block34</title>
<path fill="none" stroke="black" d="M224.28,-731.38C227.94,-722.62 231.6,-713.88 235.1,-705.51"/>
<polygon fill="black" stroke="black" points="238.23,-707.09 238.86,-696.51 231.78,-704.39 238.23,-707.09"/>
</g>
<!-- Block31 -->
<g id="node8" class="node">
<title>Block31</title>
<polygon fill="#b9d0f9" fill-opacity="0.439216" stroke="#3d50c3" points="128.38,-950 128.38,-986 244.88,-986 244.88,-950 128.38,-950"/>
<text text-anchor="start" x="136.38" y="-962.7" font-family="Times New Roman,serif" font-size="14.00">_Z3fooii::ENTRY</text>
</g>
<!-- Block31&#45;&gt;Block33 -->
<g id="edge10" class="edge">
<title>Block31&#45;&gt;Block33</title>
<path fill="none" stroke="black" d="M186.62,-949.68C186.62,-942.7 186.62,-934.07 186.62,-924.61"/>
<polygon fill="black" stroke="black" points="190.13,-924.7 186.63,-914.7 183.13,-924.7 190.13,-924.7"/>
</g>
</g>
</svg>
